<svg width="160" height="128" viewBox="0 0 160 128" fill="none" xmlns="http://www.w3.org/2000/svg">
<path d="M38.9005 4.32485C40.7505 0.749846 44.9755 -0.900154 48.7505 0.474847L80.0005 11.8748L111.251 0.474847C115.026 -0.900154 119.251 0.749846 121.101 4.32485L140.801 42.5498C148.001 56.4998 143.376 73.1248 131.176 81.6998L139.026 103.25L149.276 99.4998C153.426 97.9998 158.026 100.125 159.526 104.275C161.026 108.425 158.901 113.025 154.751 114.525L136.976 121L119.201 127.5C115.051 129.025 110.451 126.875 108.951 122.725C107.451 118.575 109.576 113.975 113.726 112.475L123.976 108.725L116.151 87.1749C101.301 88.4749 87.1005 78.6749 83.6505 63.3748L80.0005 47.1998L76.3505 63.3748C72.9005 78.6998 58.7005 88.4749 43.8505 87.1749L36.0255 108.725L46.2755 112.475C50.4255 113.975 52.5755 118.575 51.0505 122.725C49.5255 126.875 44.9505 129.025 40.8005 127.5L23.0505 121.025L5.27552 114.55C1.12552 113.025 -1.02448 108.45 0.500518 104.3C2.02552 100.15 6.60052 97.9998 10.7505 99.5248L21.0005 103.275L28.8255 81.7248C16.6255 73.1248 12.0255 56.4998 19.2255 42.5498L38.9005 4.32485ZM49.9005 17.9248L43.1005 31.1248L65.4005 39.2498L68.6755 24.7748L49.9005 17.9248ZM110.126 17.9248L91.3505 24.7748L94.6255 39.2498L116.926 31.1248L110.126 17.9248Z" fill="#FF5294"/>
</svg>
