<svg width="172" height="172" viewBox="0 0 172 172" fill="none" xmlns="http://www.w3.org/2000/svg">
<path d="M86.5335 4.81088C86.2491 2.89135 84.7917 1.32729 82.8721 1.04291C75.0163 -0.0590423 67.0182 1.36283 59.9799 5.09525L33.6753 19.1363C26.6725 22.8687 21.0206 28.7339 17.537 35.8788L4.49127 62.7523C1.00768 69.8972 -0.129823 78.0019 1.25651 85.8222L6.4108 115.255C7.79713 123.111 11.6006 130.291 17.3237 135.837L38.7585 156.596C44.4815 162.141 51.7686 165.696 59.6245 166.798L89.1284 170.957C96.9842 172.059 104.982 170.637 112.021 166.905L138.325 152.864C145.328 149.131 150.98 143.266 154.464 136.085L167.509 109.248C170.993 102.103 172.13 93.998 170.744 86.1777C170.424 84.2937 168.86 82.8718 166.976 82.5874C148.669 79.6726 133.989 65.8449 129.83 47.9648C129.19 45.2632 126.986 43.2015 124.249 42.7749C104.84 39.6824 89.5194 24.2906 86.4979 4.81088H86.5335ZM68.9378 46.1874C71.9546 46.1874 74.8479 47.3859 76.9811 49.5191C79.1143 51.6523 80.3128 54.5456 80.3128 57.5624C80.3128 60.5793 79.1143 63.4726 76.9811 65.6058C74.8479 67.739 71.9546 68.9374 68.9378 68.9374C65.9209 68.9374 63.0276 67.739 60.8944 65.6058C58.7612 63.4726 57.5628 60.5793 57.5628 57.5624C57.5628 54.5456 58.7612 51.6523 60.8944 49.5191C63.0276 47.3859 65.9209 46.1874 68.9378 46.1874ZM46.1878 114.437C46.1878 111.421 47.3862 108.527 49.5194 106.394C51.6526 104.261 54.5459 103.062 57.5628 103.062C60.5796 103.062 63.4729 104.261 65.6061 106.394C67.7393 108.527 68.9378 111.421 68.9378 114.437C68.9378 117.454 67.7393 120.348 65.6061 122.481C63.4729 124.614 60.5796 125.812 57.5628 125.812C54.5459 125.812 51.6526 124.614 49.5194 122.481C47.3862 120.348 46.1878 117.454 46.1878 114.437ZM125.813 91.6874C128.83 91.6874 131.723 92.8859 133.856 95.0191C135.989 97.1523 137.188 100.046 137.188 103.062C137.188 106.079 135.989 108.973 133.856 111.106C131.723 113.239 128.83 114.437 125.813 114.437C122.796 114.437 119.903 113.239 117.769 111.106C115.636 108.973 114.438 106.079 114.438 103.062C114.438 100.046 115.636 97.1523 117.769 95.0191C119.903 92.8859 122.796 91.6874 125.813 91.6874Z" fill="#FF5294"/>
</svg>
