<svg width="145" height="145" viewBox="0 0 145 145" fill="none" xmlns="http://www.w3.org/2000/svg">
<path d="M0 72.5C0 72.7549 0 73.0098 0 73.2646C0.113281 83.6016 9.51562 90.625 19.8525 90.625H47.5781C55.083 90.625 61.1719 96.7139 61.1719 104.219C61.1719 105.182 61.0586 106.116 60.8887 107.022C60.2939 109.911 59.0479 112.687 57.8301 115.49C56.1025 119.398 54.4033 123.278 54.4033 127.385C54.4033 136.391 60.5205 144.575 69.5264 144.943C70.5176 144.972 71.5088 145 72.5283 145C112.545 145 145 112.545 145 72.5C145 32.4551 112.545 0 72.5 0C32.4551 0 0 32.4551 0 72.5ZM108.75 81.5625C108.75 79.159 109.705 76.8539 111.404 75.1544C113.104 73.4548 115.409 72.5 117.812 72.5C120.216 72.5 122.521 73.4548 124.221 75.1544C125.92 76.8539 126.875 79.159 126.875 81.5625C126.875 83.966 125.92 86.2711 124.221 87.9706C122.521 89.6702 120.216 90.625 117.812 90.625C115.409 90.625 113.104 89.6702 111.404 87.9706C109.705 86.2711 108.75 83.966 108.75 81.5625ZM108.75 54.375C106.346 54.375 104.041 53.4202 102.342 51.7207C100.642 50.0211 99.6875 47.716 99.6875 45.3125C99.6875 42.909 100.642 40.6039 102.342 38.9043C104.041 37.2048 106.346 36.25 108.75 36.25C111.154 36.25 113.459 37.2048 115.158 38.9043C116.858 40.6039 117.812 42.909 117.812 45.3125C117.812 47.716 116.858 50.0211 115.158 51.7207C113.459 53.4202 111.154 54.375 108.75 54.375ZM63.4375 27.1875C63.4375 24.784 64.3923 22.4789 66.0919 20.7793C67.7914 19.0798 70.0965 18.125 72.5 18.125C74.9035 18.125 77.2086 19.0798 78.9081 20.7793C80.6077 22.4789 81.5625 24.784 81.5625 27.1875C81.5625 29.591 80.6077 31.8961 78.9081 33.5957C77.2086 35.2952 74.9035 36.25 72.5 36.25C70.0965 36.25 67.7914 35.2952 66.0919 33.5957C64.3923 31.8961 63.4375 29.591 63.4375 27.1875ZM36.25 54.375C33.8465 54.375 31.5414 53.4202 29.8419 51.7207C28.1423 50.0211 27.1875 47.716 27.1875 45.3125C27.1875 42.909 28.1423 40.6039 29.8419 38.9043C31.5414 37.2048 33.8465 36.25 36.25 36.25C38.6535 36.25 40.9586 37.2048 42.6581 38.9043C44.3577 40.6039 45.3125 42.909 45.3125 45.3125C45.3125 47.716 44.3577 50.0211 42.6581 51.7207C40.9586 53.4202 38.6535 54.375 36.25 54.375Z" fill="#FF5294"/>
</svg>
