<svg width="56" height="58" viewBox="0 0 56 58" fill="none" xmlns="http://www.w3.org/2000/svg">
<path fill-rule="evenodd" clip-rule="evenodd" d="M40.3333 0.268478H15.6667C7.15229 0.268478 0.25 7.35731 0.25 16.1018V41.4351C0.25 50.1796 7.15229 57.2685 15.6667 57.2685H40.3333C48.8476 57.2685 55.75 50.1796 55.75 41.4351V16.1018C55.75 7.35731 48.8476 0.268478 40.3333 0.268478ZM50.3542 41.4351C50.3372 47.1117 45.8605 51.7094 40.3333 51.7268H15.6667C10.1393 51.7094 5.66276 47.1117 5.64583 41.4351V16.1018C5.66276 10.4251 10.1393 5.82753 15.6667 5.81014H40.3333C45.8605 5.82753 50.3372 10.4251 50.3542 16.1018V41.4351ZM42.6458 16.8935C44.3488 16.8935 45.7292 15.4757 45.7292 13.7268C45.7292 11.9779 44.3488 10.5601 42.6458 10.5601C40.9429 10.5601 39.5625 11.9779 39.5625 13.7268C39.5625 15.4757 40.9429 16.8935 42.6458 16.8935ZM28 14.5185C20.3371 14.5185 14.125 20.8984 14.125 28.7685C14.125 36.6386 20.3371 43.0185 28 43.0185C35.663 43.0185 41.875 36.6386 41.875 28.7685C41.8833 24.9865 40.424 21.3571 37.8201 18.6829C35.2162 16.0087 31.6824 14.5101 28 14.5185ZM19.5208 28.7685C19.5208 33.578 23.317 37.4768 28 37.4768C32.683 37.4768 36.4792 33.578 36.4792 28.7685C36.4792 23.9589 32.683 20.0601 28 20.0601C23.317 20.0601 19.5208 23.9589 19.5208 28.7685Z" fill="#00A79D"/>
</svg>
