<svg width="55" height="48" viewBox="0 0 55 48" fill="none" xmlns="http://www.w3.org/2000/svg">
<path d="M24.1866 3.2907C24.7691 2.18445 24.3299 0.825076 23.2127 0.253201C22.0955 -0.318675 20.7014 0.112576 20.1189 1.20945L11.2292 18.0001H3.05556C1.36545 18.0001 0 19.3407 0 21.0001C0 22.6595 1.36545 24.0001 3.05556 24.0001L8.01128 43.4532C8.68924 46.1251 11.1337 48.0001 13.941 48.0001H41.059C43.8663 48.0001 46.3108 46.1251 46.9887 43.4532L51.9444 24.0001C53.6345 24.0001 55 22.6595 55 21.0001C55 19.3407 53.6345 18.0001 51.9444 18.0001H43.7708L34.8811 1.20945C34.2986 0.112576 32.9141 -0.318675 31.7873 0.253201C30.6606 0.825076 30.2309 2.18445 30.8134 3.2907L38.605 18.0001H16.395L24.1866 3.2907ZM18.3333 28.5001V37.5001C18.3333 38.3251 17.6458 39.0001 16.8056 39.0001C15.9653 39.0001 15.2778 38.3251 15.2778 37.5001V28.5001C15.2778 27.6751 15.9653 27.0001 16.8056 27.0001C17.6458 27.0001 18.3333 27.6751 18.3333 28.5001ZM27.5 27.0001C28.3403 27.0001 29.0278 27.6751 29.0278 28.5001V37.5001C29.0278 38.3251 28.3403 39.0001 27.5 39.0001C26.6597 39.0001 25.9722 38.3251 25.9722 37.5001V28.5001C25.9722 27.6751 26.6597 27.0001 27.5 27.0001ZM39.7222 28.5001V37.5001C39.7222 38.3251 39.0347 39.0001 38.1944 39.0001C37.3542 39.0001 36.6667 38.3251 36.6667 37.5001V28.5001C36.6667 27.6751 37.3542 27.0001 38.1944 27.0001C39.0347 27.0001 39.7222 27.6751 39.7222 28.5001Z" fill="#00A79D"/>
</svg>
