<svg width="122" height="161" viewBox="0 0 122 161" fill="none" xmlns="http://www.w3.org/2000/svg">
<path d="M68.5297 157.382C84.8281 137.142 122 88.0862 122 60.5316C122 27.1131 94.6771 0 61 0C27.3229 0 0 27.1131 0 60.5316C0 88.0862 37.1719 137.142 53.4703 157.382C57.3781 162.206 64.6219 162.206 68.5297 157.382ZM61 40.3544C66.3927 40.3544 71.5646 42.4802 75.3778 46.2642C79.1911 50.0482 81.3333 55.1803 81.3333 60.5316C81.3333 65.883 79.1911 71.0151 75.3778 74.7991C71.5646 78.5831 66.3927 80.7089 61 80.7089C55.6073 80.7089 50.4354 78.5831 46.6222 74.7991C42.8089 71.0151 40.6667 65.883 40.6667 60.5316C40.6667 55.1803 42.8089 50.0482 46.6222 46.2642C50.4354 42.4802 55.6073 40.3544 61 40.3544Z" fill="#FF5294"/>
</svg>
